<svg width="1000" height="600" xmlns="http://www.w3.org/2000/svg"><defs><linearGradient id="a" gradientTransform="rotate(90)"><stop offset="5%" stop-color="#927cf1"/><stop offset="95%" stop-color="#ad9cf4"/></linearGradient><linearGradient id="b" gradientTransform="rotate(90)"><stop offset="5%" stop-color="#988bf9"/><stop offset="95%" stop-color="#b1a8fa"/></linearGradient><linearGradient id="c" gradientTransform="rotate(90)"><stop offset="5%" stop-color="#9991e1"/><stop offset="95%" stop-color="#b2ace8"/></linearGradient><linearGradient id="d" gradientTransform="rotate(90)"><stop offset="5%" stop-color="#fff"/><stop offset="95%" stop-color="#fff"/></linearGradient></defs><path fill="#8c6af8" d="M0 0h1000v600H0z"/><path d="M0 120c28.132 7.783 56.263 15.567 87 12 30.737-3.567 64.079-18.483 88-23 23.921-4.517 38.422 1.365 66 11 27.578 9.635 68.232 23.024 100 23 31.768-.024 54.65-13.463 82-17 27.35-3.537 59.17 2.826 84 3 24.83.174 42.67-5.84 67-14s55.15-18.466 88-16c32.85 2.466 67.733 17.702 95 20 27.267 2.298 46.918-8.343 73-6s58.595 17.67 88 21c29.405 3.33 55.703-5.335 122-14l-40 480H0Z" fill="url(#a)"/><path d="M0 240c30.427-4.956 60.853-9.911 90-12 29.147-2.089 57.014-1.31 82 8 24.986 9.31 47.09 27.153 72 29 24.91 1.847 52.625-12.302 84-17s66.408.055 94 8 47.742 19.08 73 10c25.258-9.08 55.624-38.378 86-44 30.376-5.622 60.76 12.433 89 12 28.24-.433 54.332-19.353 82-19 27.668.353 56.91 19.98 86 33 29.09 13.02 58.026 19.434 85 17 26.974-2.434 51.987-13.717 117-25l-40 360H0Z" fill="url(#b)"/><path d="M0 360c26.658 13.2 53.316 26.399 82 25 28.684-1.399 59.393-17.396 88-24 28.607-6.604 55.11-3.817 84 0s60.165 8.662 84 4c23.835-4.662 40.23-18.83 69-22 28.77-3.17 69.912 4.658 99 14 29.088 9.342 46.12 20.199 69 24 22.88 3.801 51.609.546 83-6s65.445-16.383 95-24c29.555-7.617 54.61-13.012 82-7 27.39 6.012 57.111 23.432 85 28 27.889 4.568 53.944-3.716 120-12l-40 240H0Z" fill="url(#c)"/><path d="M0 480c26.607-6.664 53.214-13.328 79-12 25.786 1.328 50.753 10.648 80 18s62.776 12.735 92 8c29.224-4.735 54.142-19.59 79-25 24.858-5.41 49.655-1.378 79 3s63.238 9.101 93 12c29.762 2.899 55.393 3.973 81-2s51.19-18.993 78-26c26.81-7.007 54.846-8.002 84-2 29.154 6.002 59.426 19 89 29 29.574 10 58.45 17 86 16 27.55-1 53.775-10 120-19l-40 120H0Z" fill="url(#d)"/></svg>