<svg width="1000" height="600" xmlns="http://www.w3.org/2000/svg"><defs><linearGradient id="a" gradientTransform="rotate(90)"><stop offset="5%" stop-color="#8078e0"/><stop offset="95%" stop-color="#9f99e7"/></linearGradient><linearGradient id="b" gradientTransform="rotate(90)"><stop offset="5%" stop-color="#867cd3"/><stop offset="95%" stop-color="#a49cde"/></linearGradient><linearGradient id="c" gradientTransform="rotate(90)"><stop offset="5%" stop-color="#efeefc"/><stop offset="95%" stop-color="#f3f2fc"/></linearGradient></defs><path fill="#8c6af8" d="M0 0h1000v600H0z"/><path d="M0 150c29.58-9.094 59.16-18.187 82-22 22.84-3.813 38.94-2.345 65-2 26.06.345 62.083-.433 88 10s41.729 32.076 66 36c24.271 3.924 57.002-9.87 86-18 28.998-8.13 54.263-10.595 77-7 22.737 3.595 42.945 13.249 69 21 26.055 7.751 57.956 13.6 86 8 28.044-5.6 52.23-22.648 76-34 23.77-11.352 47.123-17.009 73-15 25.877 2.009 54.276 11.683 80 16 25.724 4.317 48.772 3.278 78 9 29.228 5.722 64.637 18.206 78 19 13.363.794 4.682-10.103 36-21l-40 450H0Z" fill="url(#a)"/><path d="M0 300c21.91-4.518 43.82-9.036 70-13 26.18-3.964 56.629-7.375 83 1 26.371 8.375 48.664 28.536 75 27 26.336-1.536 56.715-24.768 83-35 26.285-10.232 48.475-7.464 74 1s54.385 22.624 79 33c24.615 10.376 44.985 16.967 69 6 24.015-10.967 51.676-39.494 77-41 25.324-1.506 48.31 24.007 77 29 28.69 4.993 63.083-10.535 88-9 24.917 1.535 40.36 20.133 64 18 23.64-2.133 55.48-24.997 87-25 31.52-.003 62.72 22.856 75 28 12.28 5.144 5.64-7.428 39-20l-40 300H0Z" fill="url(#b)"/><path d="M0 450c24.273 7.308 48.545 14.615 73 8s49.092-27.154 76-28c26.908-.846 56.086 17.999 83 26 26.914 8.001 51.565 5.159 77 7 25.435 1.841 51.654 8.367 77 12 25.346 3.633 49.82 4.374 75-1s51.064-16.864 78-23c26.936-6.136 54.923-6.917 80-11 25.077-4.083 47.243-11.467 70-4 22.757 7.467 46.106 29.785 73 30 26.894.215 57.332-21.674 84-23 26.668-1.326 49.564 17.912 79 27 29.436 9.088 65.41 8.025 79 3 13.59-5.025 4.795-14.013 36-23l-40 150H0Z" fill="url(#c)"/></svg>