<svg width="1000" height="600" xmlns="http://www.w3.org/2000/svg"><defs><linearGradient id="a" gradientTransform="rotate(90)"><stop offset="5%" stop-color="#581ff2"/><stop offset="95%" stop-color="#8157f5"/></linearGradient><linearGradient id="b" gradientTransform="rotate(90)"><stop offset="5%" stop-color="#7c4efe"/><stop offset="95%" stop-color="#9c7afe"/></linearGradient><linearGradient id="c" gradientTransform="rotate(90)"><stop offset="5%" stop-color="#9669ff"/><stop offset="95%" stop-color="#b08eff"/></linearGradient><linearGradient id="d" gradientTransform="rotate(90)"><stop offset="5%" stop-color="#8c3fff"/><stop offset="95%" stop-color="#a86fff"/></linearGradient></defs><path fill="#4411d2" d="M0 0h1000v600H0z"/><path d="M0 120c24.208-.093 48.415-.187 74 2s52.546 6.654 85 10 70.4 5.57 97 0c26.6-5.57 41.851-18.93 69-18 27.149.93 66.195 16.155 99 19 32.805 2.845 59.37-6.687 83-4 23.63 2.687 44.325 17.594 71 17 26.675-.594 59.33-16.69 86-20 26.67-3.31 47.355 6.164 76 14 28.645 7.836 65.25 14.033 97 6s58.643-30.295 85-37c26.357-6.705 52.179 2.148 118 11l-40 480H0Z" fill="url(#a)"/><path d="M0 240c27.013 5.844 54.026 11.688 83 5 28.974-6.688 59.91-25.908 87-30 27.09-4.092 50.334 6.942 79 19 28.666 12.058 62.755 25.138 93 28 30.245 2.862 56.647-4.494 82-6 25.353-1.506 49.656 2.84 76-6s54.729-30.865 80-34c25.271-3.135 47.429 12.618 78 24 30.571 11.382 69.555 18.39 99 12 29.445-6.39 49.35-26.182 75-29 25.65-2.818 57.043 11.338 86 17 28.957 5.662 55.479 2.831 122 0l-40 360H0Z" fill="url(#b)"/><path d="M0 360c32.478-1.233 64.955-2.466 91-7s45.656-12.368 74-14c28.344-1.632 65.42 2.938 93 2 27.58-.938 45.663-7.384 69 0 23.337 7.384 51.928 28.598 82 30 30.072 1.402 61.625-17.009 93-18 31.375-.991 62.571 15.438 90 16 27.429.562 51.09-14.742 78-19 26.91-4.258 57.069 2.529 85 7 27.931 4.471 53.635 6.627 81 6 27.365-.627 56.39-4.036 84-5 27.61-.964 53.805.518 120 2l-40 240H0Z" fill="url(#c)"/><path d="M0 480c29.55 10.413 59.1 20.826 85 17 25.9-3.826 48.15-21.89 76-30s61.301-6.266 90 3c28.699 9.266 52.645 25.954 81 26 28.355.046 61.119-16.551 90-20 28.881-3.449 53.88 6.25 79 13 25.12 6.75 50.36 10.551 81 3s66.68-26.454 93-26c26.32.454 42.92 20.266 66 18 23.08-2.266 52.637-26.61 85-28 32.363-1.39 67.532 20.174 97 28 29.468 7.826 53.234 1.913 117-4l-40 120H0Z" fill="url(#d)"/></svg>