<?xml version="1.0" standalone="no"?>
<svg xmlns:xlink="http://www.w3.org/1999/xlink" id="wave" style="transform:rotate(180deg); transition: 0.3s" viewBox="0 0 1440 490" version="1.1" xmlns="http://www.w3.org/2000/svg"><defs><linearGradient id="sw-gradient-0" x1="0" x2="0" y1="1" y2="0"><stop stop-color="rgba(72.425, 62, 243, 1)" offset="0%"/><stop stop-color="rgba(66.386, 11, 255, 1)" offset="100%"/></linearGradient></defs><path style="transform:translate(0, 0px); opacity:1" fill="url(#sw-gradient-0)" d="M0,294L30,277.7C60,261,120,229,180,212.3C240,196,300,196,360,212.3C420,229,480,261,540,261.3C600,261,660,229,720,253.2C780,278,840,359,900,375.7C960,392,1020,343,1080,302.2C1140,261,1200,229,1260,236.8C1320,245,1380,294,1440,294C1500,294,1560,245,1620,236.8C1680,229,1740,261,1800,269.5C1860,278,1920,261,1980,269.5C2040,278,2100,310,2160,277.7C2220,245,2280,147,2340,155.2C2400,163,2460,278,2520,343C2580,408,2640,425,2700,432.8C2760,441,2820,441,2880,392C2940,343,3000,245,3060,228.7C3120,212,3180,278,3240,285.8C3300,294,3360,245,3420,228.7C3480,212,3540,229,3600,245C3660,261,3720,278,3780,277.7C3840,278,3900,261,3960,261.3C4020,261,4080,278,4140,285.8C4200,294,4260,294,4290,294L4320,294L4320,490L4290,490C4260,490,4200,490,4140,490C4080,490,4020,490,3960,490C3900,490,3840,490,3780,490C3720,490,3660,490,3600,490C3540,490,3480,490,3420,490C3360,490,3300,490,3240,490C3180,490,3120,490,3060,490C3000,490,2940,490,2880,490C2820,490,2760,490,2700,490C2640,490,2580,490,2520,490C2460,490,2400,490,2340,490C2280,490,2220,490,2160,490C2100,490,2040,490,1980,490C1920,490,1860,490,1800,490C1740,490,1680,490,1620,490C1560,490,1500,490,1440,490C1380,490,1320,490,1260,490C1200,490,1140,490,1080,490C1020,490,960,490,900,490C840,490,780,490,720,490C660,490,600,490,540,490C480,490,420,490,360,490C300,490,240,490,180,490C120,490,60,490,30,490L0,490Z"/><defs><linearGradient id="sw-gradient-1" x1="0" x2="0" y1="1" y2="0"><stop stop-color="rgba(140, 106, 248, 1)" offset="0%"/><stop stop-color="rgba(11, 46.546, 255, 1)" offset="100%"/></linearGradient></defs><path style="transform:translate(0, 50px); opacity:0.9" fill="url(#sw-gradient-1)" d="M0,98L30,138.8C60,180,120,261,180,285.8C240,310,300,278,360,245C420,212,480,180,540,138.8C600,98,660,49,720,73.5C780,98,840,196,900,236.8C960,278,1020,261,1080,245C1140,229,1200,212,1260,212.3C1320,212,1380,229,1440,196C1500,163,1560,82,1620,114.3C1680,147,1740,294,1800,343C1860,392,1920,343,1980,277.7C2040,212,2100,131,2160,155.2C2220,180,2280,310,2340,310.3C2400,310,2460,180,2520,147C2580,114,2640,180,2700,212.3C2760,245,2820,245,2880,228.7C2940,212,3000,180,3060,155.2C3120,131,3180,114,3240,155.2C3300,196,3360,294,3420,302.2C3480,310,3540,229,3600,196C3660,163,3720,180,3780,228.7C3840,278,3900,359,3960,351.2C4020,343,4080,245,4140,196C4200,147,4260,147,4290,147L4320,147L4320,490L4290,490C4260,490,4200,490,4140,490C4080,490,4020,490,3960,490C3900,490,3840,490,3780,490C3720,490,3660,490,3600,490C3540,490,3480,490,3420,490C3360,490,3300,490,3240,490C3180,490,3120,490,3060,490C3000,490,2940,490,2880,490C2820,490,2760,490,2700,490C2640,490,2580,490,2520,490C2460,490,2400,490,2340,490C2280,490,2220,490,2160,490C2100,490,2040,490,1980,490C1920,490,1860,490,1800,490C1740,490,1680,490,1620,490C1560,490,1500,490,1440,490C1380,490,1320,490,1260,490C1200,490,1140,490,1080,490C1020,490,960,490,900,490C840,490,780,490,720,490C660,490,600,490,540,490C480,490,420,490,360,490C300,490,240,490,180,490C120,490,60,490,30,490L0,490Z"/><defs><linearGradient id="sw-gradient-2" x1="0" x2="0" y1="1" y2="0"><stop stop-color="rgba(127.614, 62, 243, 1)" offset="0%"/><stop stop-color="rgba(58.119, 11, 255, 1)" offset="100%"/></linearGradient></defs><path style="transform:translate(0, 100px); opacity:0.8" fill="url(#sw-gradient-2)" d="M0,49L30,65.3C60,82,120,114,180,179.7C240,245,300,343,360,343C420,343,480,245,540,187.8C600,131,660,114,720,122.5C780,131,840,163,900,220.5C960,278,1020,359,1080,326.7C1140,294,1200,147,1260,73.5C1320,0,1380,0,1440,24.5C1500,49,1560,98,1620,171.5C1680,245,1740,343,1800,334.8C1860,327,1920,212,1980,179.7C2040,147,2100,196,2160,245C2220,294,2280,343,2340,326.7C2400,310,2460,229,2520,228.7C2580,229,2640,310,2700,294C2760,278,2820,163,2880,114.3C2940,65,3000,82,3060,81.7C3120,82,3180,65,3240,122.5C3300,180,3360,310,3420,326.7C3480,343,3540,245,3600,204.2C3660,163,3720,180,3780,155.2C3840,131,3900,65,3960,89.8C4020,114,4080,229,4140,285.8C4200,343,4260,343,4290,343L4320,343L4320,490L4290,490C4260,490,4200,490,4140,490C4080,490,4020,490,3960,490C3900,490,3840,490,3780,490C3720,490,3660,490,3600,490C3540,490,3480,490,3420,490C3360,490,3300,490,3240,490C3180,490,3120,490,3060,490C3000,490,2940,490,2880,490C2820,490,2760,490,2700,490C2640,490,2580,490,2520,490C2460,490,2400,490,2340,490C2280,490,2220,490,2160,490C2100,490,2040,490,1980,490C1920,490,1860,490,1800,490C1740,490,1680,490,1620,490C1560,490,1500,490,1440,490C1380,490,1320,490,1260,490C1200,490,1140,490,1080,490C1020,490,960,490,900,490C840,490,780,490,720,490C660,490,600,490,540,490C480,490,420,490,360,490C300,490,240,490,180,490C120,490,60,490,30,490L0,490Z"/></svg>