<svg width="1000" height="600" xmlns="http://www.w3.org/2000/svg"><defs><linearGradient id="a" gradientTransform="rotate(90)"><stop offset="5%" stop-color="#6625d6"/><stop offset="95%" stop-color="#8c5be0"/></linearGradient><linearGradient id="b" gradientTransform="rotate(90)"><stop offset="5%" stop-color="#766bc8"/><stop offset="95%" stop-color="#9890d5"/></linearGradient><linearGradient id="c" gradientTransform="rotate(90)"><stop offset="5%" stop-color="#efedff"/><stop offset="95%" stop-color="#f3f1ff"/></linearGradient></defs><path fill="#7400ef" d="M0 0h1000v600H0z"/><path d="M0 150c36.603-4.807 73.205-9.613 113-12 39.795-2.387 82.782-2.354 127 2s89.668 13.03 133 9c43.332-4.03 84.548-20.768 130-33s95.142-19.96 132-2c36.858 17.96 60.885 61.604 99 71s90.319-15.458 137-27 87.84-9.77 169-8l-40 450H0Z" fill="url(#a)"/><path d="M0 300c47.532 1.796 95.064 3.593 133 4 37.936.407 66.275-.575 108 2 41.725 2.575 96.834 8.706 141 7 44.166-1.706 77.387-11.25 116-7s82.618 22.294 124 30c41.382 7.706 80.141 5.075 126-8 45.859-13.075 98.817-36.593 142-43 43.183-6.407 76.592 4.296 150 15l-40 300H0Z" fill="url(#b)"/><path d="M0 450c41.394 16.97 82.788 33.939 125 30s85.242-28.786 123-32c37.758-3.214 70.245 15.205 114 14 43.755-1.205 98.78-22.036 139-20 40.22 2.036 65.636 26.937 108 35 42.364 8.063 101.675-.714 144-13s67.664-28.082 106-31c38.336-2.918 89.668 7.04 181 17l-40 150H0Z" fill="url(#c)"/></svg>